<svg width="640" height="480" viewBox="0 0 640 480" fill="none" xmlns="http://www.w3.org/2000/svg">
<g clip-path="url(#clip0_97_2)">
<rect width="640" height="480" fill="white"/>
<g clip-path="url(#clip1_97_2)">
<path d="M-130 540H770V-60H-130V540Z" fill="#005430"/>
<path d="M545 178.324C544.937 167.784 540.848 139.393 539.81 129.869C538.774 120.344 537.731 111.704 537.983 109.68C538.229 107.728 541.234 112.395 542.823 112.772C543.644 112.608 543.277 109.66 541.785 107.143C540.774 105.433 537.328 99.0415 535.238 95.2961C534.255 93.5234 534.036 92.4952 533.562 92.2774C533.091 92.0597 529.286 99.7354 529.702 100.586C530.741 102.146 531.453 102.891 531.614 105.646C531.779 108.401 533.203 128.073 535.019 142.984C536.386 154.233 539.385 178.468 539.492 193.536C539.522 198.451 538.977 203.136 538.322 205.094C536.643 208.168 534.019 210.941 524.246 216.659C513.26 223.089 498.603 228.44 492.303 232.021C488.386 234.255 489.685 234.553 493.095 233.576C496.497 232.598 514.087 229.466 522.633 225.855C530.656 222.456 535.863 216.771 539.815 208.477C544.696 198.223 545.069 189.522 545 178.324Z" fill="white"/>
<path d="M510.988 98.2612C511.837 97.932 518.868 97.5699 520.761 97.9599C519.517 99.7376 511.086 103.673 511.051 104.395C511.281 104.881 516.874 103.496 518.638 102.726C519.791 102.032 520.561 100.958 521.415 100.067C523.431 97.7472 525.822 93.4446 525.22 92.9052C524.242 92.034 514.658 92.576 513.395 92.7558C512.549 92.8773 510.401 96.7266 510.007 97.7142C509.621 98.7019 510.138 98.5904 510.988 98.2612Z" fill="white"/>
<path d="M525.35 160.733C526.816 155.769 527.177 149.747 525.183 143.408C523.134 136.882 518.045 132.904 514.375 130.865L513.72 137.148C513.72 137.148 518.867 139.706 522.387 146.146C524.616 150.231 525.545 156.007 523.784 162.447C523.49 164.045 524.633 163.164 525.35 160.733Z" fill="white"/>
<path d="M470.9 192.24C472.22 187.77 472.543 182.348 470.752 176.64C468.906 170.763 464.323 167.179 461.017 165.351L460.426 171.006C460.426 171.006 465.06 173.31 468.229 179.104C470.24 182.779 471.073 187.988 469.492 193.785C469.229 195.218 470.256 194.428 470.9 192.24Z" fill="white"/>
<path d="M281.863 106.691C283.983 110.568 284.862 116.059 283.194 122.174C282.915 123.691 283.994 122.858 284.681 120.549C286.067 115.838 286.412 110.115 284.517 104.09C282.569 97.8886 277.735 94.1128 274.248 92.1805L273.632 98.1469C273.632 98.1469 278.521 100.575 281.863 106.691Z" fill="white"/>
<path d="M154.25 108.698C156.031 112.871 156.151 118.506 153.275 124.442C152.716 125.933 154.078 125.227 155.22 122.996C157.553 118.435 158.863 112.727 157.679 106.421C156.466 99.9379 151.596 95.5188 147.95 93.1257L146.296 99.049C146.296 99.049 151.443 102.118 154.25 108.698Z" fill="white"/>
<path d="M189.526 201.982C191.789 197.784 192.731 194.958 193.736 189.984C194.616 185.608 194.673 180.553 194.355 175.407C201.126 172.647 209.196 168.066 211.907 167.729C210.053 174.096 214.479 180.966 223.42 180.07C224.105 187.269 224.691 193.593 225.047 197.343C225.775 205.032 225.666 214.721 225.644 216.405C225.614 218.096 226.838 217.777 228.095 214.009C229.772 208.964 230.289 195.791 229.681 187.079C229.536 184.901 229.29 181.961 228.991 178.611C234.787 175.929 235.751 170.753 237.918 168.547C239.873 175.397 250.638 176.327 253.96 174.86C258.08 173.04 259.43 169.765 260.49 162.165C261.553 154.568 258.458 151.509 257.351 150.681C257.242 151.6 254.547 160.529 254.547 160.529C254.547 160.529 257.102 163.229 257.231 164.556C255.149 166.44 250.758 166.557 247.072 165.356C243.382 164.156 242.251 161.948 242.47 160.466C242.684 158.98 244.072 157.627 244.119 155.817C244.16 154.006 243.292 154.53 241.815 156.133C240.339 157.739 239.386 159.182 237.343 162.629C235.672 165.447 232.96 168.886 228.178 169.869C227.389 161.593 226.488 152.788 225.885 147.257C225.57 144.337 222.423 119.104 222.198 116.281C222.004 113.822 221.639 110.922 221.7 109.56C221.76 108.476 222.439 108.906 223.491 110.041C224.546 111.173 226.389 113.148 226.707 112.994C227.78 112.467 226.682 109.187 225.277 106.25C223.874 103.305 219.087 91.6858 218.081 91.2072C217.564 90.9641 214.332 98.1156 214.14 99.5236C214.641 100.405 215.95 101.79 215.997 105.731C216.013 106.83 216.72 117.192 217.701 126.99C218.558 135.643 219.695 143.854 219.804 144.808C220.585 151.413 221.533 160.722 222.434 169.874C217.243 168.886 215.863 165.463 215.978 163.51C216.109 161.307 217.103 158.82 216.627 158.258C215.627 157.658 209.678 160.983 201.381 164.556C199.047 165.559 196.418 166.635 193.643 167.656C192.92 161.418 191.967 155.487 191.584 150.952L191.537 150.448C196.993 150.096 201.461 147.341 203.493 144.717C206.032 141.438 207.807 134.689 207.98 129.518C208.152 124.341 203.975 114.878 202.981 111.869C201.978 108.858 201.461 106.771 201.373 105.731C201.283 104.69 203.63 106.936 205.106 107.377C206.106 107.577 205.761 105.411 204.539 103.925C203.326 102.443 196.763 92.4835 196.303 93.1825C196.021 93.5927 193.391 100.919 193.219 102.041C194.254 102.725 195.465 104.609 195.55 106.414C195.637 108.22 197.084 116.159 198.686 120.571C200.294 124.982 203.718 133.445 203.934 135.773C201.488 137.497 195.919 140.417 190.411 140.242C189.469 132.523 188.275 123.559 187.637 117.21C187.39 114.756 187.374 112.138 187.412 110.77C187.442 109.686 188.223 109.836 189.296 110.95C190.376 112.064 192.03 113.685 192.37 113.568C193.109 113.323 192.468 110.864 191.003 107.944C189.537 105.024 183.714 92.6734 182.692 92.2125C182.175 91.977 179.567 98.9133 179.403 100.329C179.923 101.205 181.257 102.56 181.389 106.5C181.493 109.638 183.021 125.015 184.33 138.558C178.88 135.74 177.02 131.711 176.346 124.947C175.875 120.231 175.828 111.545 174.147 104.279C173.199 100.172 171.202 95.9985 168.836 93.7826C168.271 95.1476 165.751 103.527 165.751 103.527C166.573 105.933 169.129 114.034 169.041 121.054C168.956 128.074 168.403 134.937 160.536 139.665C152.675 144.395 140.883 142.514 137.972 135.134C135.06 127.75 141.532 109.235 141.447 104.864C141.36 100.494 140.579 99.8908 138.752 100.613C136.928 101.334 133.195 105.548 129.979 112.403C126.763 119.264 125.334 127.76 123.507 133.536C121.685 139.313 118.768 145.165 114.254 144.841C109.74 144.522 107.31 140.392 105.922 134.418C104.53 128.439 105.382 120.565 105.76 118.547C106.702 113.492 104.519 114.528 103.183 122.465C102.355 127.36 101.534 135.177 104.445 143.36C107.351 151.542 112.306 154.593 116.648 153.548C120.992 152.507 124.81 142.319 126.158 137.743C127.503 133.174 133.521 112.882 136.928 111.884C137.405 114.171 134.279 121.543 133.28 130.166C132.283 138.789 134.608 150.372 145.553 152.375C156.499 154.381 163.924 147.282 166.617 142.354C169.312 137.419 170.569 132.245 170.873 129.639C171.224 136.254 175.738 146.583 184.506 149.529L185.41 149.789C185.949 155.204 186.828 162.272 187.637 169.694C185.93 170.221 184.207 170.697 182.493 171.107C182.273 170.396 182.032 169.699 181.739 169.059C179.063 163.302 174.634 157.997 168.496 158.364C162.226 158.736 155.389 167.104 155.688 173.214C155.885 177.324 158.148 180.698 166.376 181.561C170.134 181.959 174.125 181.541 178.247 180.642C178.828 182.341 179.195 184.03 179.236 185.57C176.628 188.619 155.052 204.892 138.897 206.457C122.742 208.02 117.815 199.551 117.653 191.05C117.533 184.582 121.422 178.127 124.156 173.66C128.067 170.798 131.277 167.22 133.304 164.46C133.855 164.799 134.378 165.113 134.876 165.404C136.807 166.526 137.577 168.203 137.577 168.203C137.933 167.656 139.593 164.667 138.944 163.206C138.645 162.847 137.185 161.948 135.43 160.881C137.273 156.288 137.248 151.701 134.86 150.681C132.189 149.544 128.703 152.704 127.199 154.631C126.418 155.634 126.12 156.771 126.114 157.726C126.103 158.954 126.681 160.063 128.111 161.051C129.535 162.024 130.858 162.905 132.102 163.7C128.571 167.407 120.228 172.839 115.122 176.03C114.933 175.562 114.185 176.056 113.18 177.241L111.797 178.094C107.724 180.586 97.9565 186.059 96.0364 187.398C94.1135 188.741 95.3187 188.497 96.0364 188.199C97.3922 187.467 99.1726 186.58 101.172 185.603C104.004 184.218 107.299 182.65 110.521 181.077C109.567 182.693 108.581 184.582 107.708 186.644C103.865 195.717 97.6524 214.523 111.09 225.838C123.948 236.669 146.046 232.549 164.374 221.292C182.703 210.033 186.661 206.075 189.526 201.982ZM129.771 157.25C129.135 156.781 129.048 156.156 129.565 155.72C130.225 155.158 131.069 154.626 132.028 154.447C134.06 154.069 134.871 156.404 134.055 160.041C132.51 159.096 130.921 158.103 129.771 157.25ZM171.81 172.589C162.478 172.632 162.048 170.938 162.223 169.854C162.396 168.775 165.302 165.815 168.989 167.767C170.547 168.595 172.303 170.327 173.927 172.503C173.21 172.556 172.503 172.584 171.81 172.589ZM143.228 221.664C125.596 226.476 108.398 219.021 107.357 204.259C106.56 192.987 110.671 184.494 113.323 179.707C115.851 178.456 118.239 177.241 120.214 176.152C115.599 183.585 112.898 193.539 114.703 201.972C116.747 211.525 125.057 217.316 139.127 215.447C153.058 213.601 171.895 200.352 177.236 195.355C178.863 193.552 179.937 191.926 181.4 188.614C182.002 187.254 182.849 185.459 183.164 183.43C183.369 182.108 183.479 180.695 183.503 179.257C185.138 178.768 186.782 178.221 188.436 177.633C188.998 183.681 189.411 189.642 189.436 194.798C180.756 204.978 160.859 216.85 143.228 221.664Z" fill="white"/>
<path d="M451.625 182.955C451.028 173.079 449.587 155.202 448.782 146.134C448.07 138.063 446.67 127.001 445.646 117.264C445.388 114.813 445.361 112.465 445.388 111.1C445.418 110.021 446.498 110.437 447.577 111.546C448.656 112.655 450.343 114.048 450.661 113.878C451.716 113.331 450.453 110.627 448.971 107.717C447.489 104.802 441.614 92.7454 440.592 92.287C440.072 92.054 437.319 99.2765 437.16 100.692C437.686 101.563 439.031 102.913 439.176 106.853C439.324 110.796 441.315 128.923 442.753 143.584C443.75 153.774 445.038 170.402 445.974 182.94C445.928 182.96 446.859 194.86 446.961 196.197C447.536 203.895 447.237 213.582 447.18 215.263C447.117 216.953 448.352 216.659 449.678 212.911C451.028 209.084 451.798 200.54 451.902 192.826L451.625 182.955Z" fill="white"/>
<path d="M401.563 148.38C399.755 148.932 396.917 147.02 397.134 143.011C397.331 139.39 398.881 135.999 399.478 133.859C400.3 130.906 400.306 128.06 399.61 129.673C398.043 133.279 395.126 140.251 394.524 144.982C393.918 149.712 395.452 152.761 397.536 153.802C400.133 155.106 402.004 153.037 403.269 149.988C404.486 147.068 404.255 143.66 403.412 144.462C402.705 145.301 402.442 148.109 401.563 148.38Z" fill="white"/>
<path d="M375.575 162.952C376.534 160.405 376.759 157.908 376.022 159.278C374.359 162.347 371.245 168.278 370.333 172.398C369.423 176.519 370.527 179.307 372.28 180.363C374.466 181.685 376.266 179.991 377.627 177.395C378.928 174.911 378.994 171.894 378.194 172.548C377.504 173.237 377.046 175.685 376.257 175.865C374.617 176.227 372.278 174.353 372.784 170.838C373.244 167.673 374.88 164.794 375.575 162.952Z" fill="white"/>
<path d="M299.9 216.698C301.502 214.097 302.3 211.4 301.187 212.762C298.706 215.806 294.008 221.714 292.113 226.047C290.223 230.38 290.826 233.634 292.51 235.116C294.611 236.964 296.953 235.445 298.999 232.864C300.963 230.39 301.697 227.108 300.67 227.668C299.769 228.298 298.739 230.889 297.832 230.937C295.967 231.028 293.814 228.544 295.134 224.801C296.328 221.423 298.741 218.582 299.9 216.698Z" fill="white"/>
<path d="M432.575 140.797C430.737 141.258 428.02 139.2 428.475 135.206C428.889 131.602 430.644 128.297 431.365 126.196C432.367 123.286 432.54 120.447 431.748 122.017C429.973 125.542 426.643 132.349 425.752 137.044C424.862 141.737 426.207 144.859 428.228 146.007C430.748 147.435 432.732 145.47 434.183 142.487C435.572 139.635 435.55 136.221 434.654 136.981C433.901 137.786 433.471 140.575 432.575 140.797Z" fill="white"/>
<path d="M432.013 189.791C434.527 191.22 436.521 189.254 437.967 186.271C439.353 183.42 439.334 180.006 438.444 180.766C437.685 181.566 437.255 184.359 436.36 184.582C434.522 185.04 431.799 182.984 432.259 178.991C432.673 175.387 434.426 172.08 435.149 169.98C436.149 167.07 436.321 164.227 435.532 165.802C433.752 169.327 430.427 176.134 429.537 180.824C428.646 185.522 429.991 188.644 432.013 189.791Z" fill="white"/>
<path d="M464.15 127.208C465.361 123.687 465.569 120.251 464.611 122.153C462.458 126.417 458.431 134.653 457.352 140.338C456.278 146.018 457.908 149.794 460.354 151.184C463.397 152.911 465.805 150.534 467.561 146.927C469.234 143.476 469.209 139.34 468.13 140.265C467.218 141.235 466.695 144.608 465.61 144.879C463.392 145.436 460.097 142.946 460.653 138.115C461.154 133.754 463.277 129.755 464.15 127.208Z" fill="white"/>
<path d="M207.32 188.092C209.301 183.803 210.018 179.508 208.561 181.794C205.299 186.912 199.155 196.822 197.057 203.842C194.956 210.864 196.512 215.797 199.402 217.82C203.006 220.333 206.345 217.608 209.021 213.275C211.582 209.119 212.092 203.915 210.615 204.956C209.342 206.07 208.241 210.259 206.844 210.479C203.973 210.93 200.16 207.43 201.492 201.415C202.697 195.989 205.891 191.197 207.32 188.092Z" fill="white"/>
<path d="M484.625 230.625C486.143 229.382 499.34 222.273 501.769 220.83C501.769 220.83 504.253 216.778 503.508 216.347C502.761 215.917 497.943 220.298 494.946 220.419C491.947 220.541 487.841 218.338 487.709 216.532C488.098 215.17 491.706 213.123 493.01 213.04C494.313 212.964 494.102 215.932 494.538 216.294C494.974 216.651 496.707 214.245 496.926 213.243C497.14 212.242 496.962 208.054 494.576 208.654C490.799 209.609 485.102 216.613 484.453 218.816C483.798 221.025 487.318 222.947 489.887 223.993C489.668 224.074 487.751 224.995 486.537 226.196C486.537 226.196 485.233 227.657 484.625 230.625Z" fill="white"/>
<path d="M439.625 239.43C441.143 238.187 454.34 231.083 456.769 229.635C456.769 229.635 459.259 225.583 458.508 225.152C457.761 224.722 452.943 229.103 449.946 229.224C446.947 229.346 442.841 227.143 442.709 225.337C443.098 223.975 446.706 221.928 448.01 221.85C449.313 221.769 449.102 224.734 449.538 225.094C449.974 225.456 451.707 223.05 451.926 222.048C452.14 221.047 451.957 216.859 449.576 217.459C445.799 218.419 440.102 225.418 439.453 227.626C438.798 229.83 442.318 231.752 444.882 232.798C444.668 232.879 442.751 233.798 441.537 235.001C441.537 235.001 440.233 236.462 439.625 239.43Z" fill="white"/>
<path d="M338.263 112.02C339.446 113.395 347.197 123.244 353.27 129.435C359.34 135.632 369.746 145.661 377.39 152.534C378.869 153.866 380.439 155.309 382.036 156.811C383.964 171.615 386.194 190.454 387.13 198.244C388.053 205.914 388.19 215.601 388.21 217.287C388.226 218.976 389.442 218.632 390.598 214.841C392.148 209.753 392.326 196.58 391.505 187.878C390.995 182.505 389.793 172.438 388.629 163.157C393.143 167.617 397.407 172.041 400.281 175.353C405.564 181.433 410.01 186.02 412.719 192.556C414.636 197.18 414.442 200.86 415.228 201.586C415.907 202.214 416.658 196.681 415.82 191.315C414.461 182.601 412.598 178.906 401.412 166.464C397.144 161.708 392.121 156.737 387.21 152.09C387.021 150.657 386.848 149.33 386.692 148.152C386.303 145.243 382.512 120.086 382.214 117.267C381.959 114.813 381.513 111.924 381.548 110.559C381.576 109.472 382.266 109.895 383.351 111.005C384.43 112.111 386.32 114.049 386.64 113.879C387.697 113.332 386.52 110.083 385.038 107.168C383.561 104.258 378.475 92.7458 377.453 92.29C376.936 92.057 373.887 99.2769 373.731 100.69C374.26 101.561 375.602 102.919 375.747 106.854C375.788 107.953 376.763 118.3 377.987 128.07C379.072 136.703 380.414 144.891 380.554 145.838L380.559 145.911C375.495 141.292 371.033 137.369 368.327 134.905C361.999 129.154 348.025 115.507 347.463 113.464C347.337 112.818 348.422 113.215 350.416 113.534C352.418 113.856 354.199 114.537 353.878 113.555C353.733 113.091 352.966 111.947 351.057 110.766C349.145 109.584 344.247 106.52 340.605 104.352C336.953 102.187 335.146 100.371 334.392 100.89C334.02 101.146 334.351 108.563 334.57 109.488C335.482 109.566 337.085 110.64 338.263 112.02Z" fill="white"/>
<path d="M348.238 98.6813C349.736 98.3521 356.835 98.5319 359.413 99.0738C358.334 99.8234 351.07 103.493 349.634 104.367C348.207 105.243 347.846 105.749 348.563 105.663C350.645 105.086 355.337 104.367 357.586 103.194C359.706 102.201 363.319 97.3594 364.724 95.5537C366.121 93.7481 366.121 92.8466 365.765 92.3629C364.33 91.5829 355.077 90.8004 350.615 91.9071C349.38 92.7453 346.964 97.2099 346.608 98.1393C346.252 99.0738 346.739 99.0105 348.238 98.6813Z" fill="white"/>
<path d="M387.725 98.1C388.936 97.8341 394.658 97.9784 396.731 98.414C395.863 99.0193 390.012 101.977 388.856 102.686C387.698 103.388 387.41 103.798 387.988 103.727C389.667 103.266 393.45 102.686 395.26 101.737C396.967 100.936 399.879 97.0338 401.01 95.5828C402.136 94.1241 402.136 93.3998 401.848 93.0124C400.698 92.3767 393.239 91.7487 389.643 92.6426C388.646 93.3163 386.704 96.9148 386.416 97.6644C386.123 98.414 386.52 98.3659 387.725 98.1Z" fill="white"/>
<path d="M419.825 97.6875C421.03 97.4216 426.752 97.566 428.826 98.0015C427.963 98.6068 422.11 101.565 420.951 102.269C419.798 102.975 419.51 103.385 420.088 103.315C421.767 102.854 425.843 102.269 427.653 101.324C429.363 100.524 431.387 96.6214 432.518 95.1652C433.649 93.7116 433.649 92.9823 433.356 92.5999C432.206 91.9643 425.333 91.3362 421.743 92.2251C420.746 92.9038 418.798 96.5023 418.51 97.2519C418.223 98.0015 418.615 97.9534 419.825 97.6875Z" fill="white"/>
<path d="M399.8 113.321C397.899 116.315 400.282 118.73 401.151 121.149C399.978 122.22 398.176 121.243 397.574 120.303C396.292 118.376 396.722 114.448 395.212 113.843C394.826 114.904 394.574 116.082 394.574 116.082C394.574 116.082 395.722 118.768 395.434 120.546C395.251 121.62 394.303 122.873 393.051 122.899C389.715 122.98 391.359 118.042 390.071 115.243C389.808 115.927 389.619 116.661 389.312 117.302C389.548 118.032 389.677 119.055 389.715 119.645C389.792 120.817 389.699 122.081 389.899 123.081C390.175 124.497 390.961 125.436 392.161 125.527C394.654 125.725 395.79 123.707 396.166 122.05C396.596 123.74 399.891 125.601 401.512 123.527C403.66 120.792 401.942 118.449 400.841 115.876C400.047 113.975 400.277 112.726 399.8 113.321Z" fill="white"/>
<path d="M306.163 105.382C306.335 106.613 306.968 107.454 308.001 107.581C310.132 107.852 311.211 106.157 311.614 104.749C311.896 106.221 314.651 107.953 316.149 106.236C318.13 103.964 316.758 101.878 315.93 99.6162C315.339 97.9397 315.593 96.8761 315.155 97.3699C313.375 99.8669 315.317 102.052 315.95 104.172C314.887 105.043 313.383 104.129 312.906 103.301C311.893 101.586 312.446 98.2208 311.181 97.6358C310.797 98.5374 310.526 99.5377 310.526 99.5377C310.526 99.5377 311.383 101.9 311.049 103.417C310.844 104.337 309.97 105.377 308.885 105.35C306.012 105.286 307.661 101.098 306.68 98.6387C306.426 99.2135 306.226 99.8441 305.927 100.376C306.1 101.019 306.163 101.9 306.163 102.415C306.185 103.427 306.042 104.506 306.163 105.382Z" fill="white"/>
<path d="M374.15 221.362C374.471 220.853 375.177 219.456 374.999 218.501C374.821 217.546 373.652 213.563 371.381 212.565C369.124 211.567 367.415 213.659 366.333 216.569L365.582 216.551C365.404 216.981 365.18 217.625 365.002 218.787C364.75 220.466 364.273 221.547 361.394 224.161C358.973 226.349 351.128 231.604 346.045 234.073C340.955 236.547 337.293 238.682 335.943 239.33C334.598 239.968 334.99 240.206 336.334 239.804C337.677 239.403 344.431 237.228 347.124 236.119C349.811 235.002 353.098 233.166 357.058 230.596C361.463 227.739 364.095 224.883 364.98 222.35C365.61 220.545 365.771 219.823 365.771 219.823C365.771 219.823 367.426 220.8 370.233 221.441C373.03 222.084 373.824 221.877 374.15 221.362ZM370.354 215.703C371.6 216.176 372.359 217.533 372.583 218.357C371.154 218.389 368.521 217.663 367.401 217.156C368.075 215.852 369.247 215.287 370.354 215.703Z" fill="white"/>
<path d="M344.338 224.164C340.432 223.622 330.59 222.125 328.183 216.412C330.204 213.464 339.514 209.732 351.177 206.239C362.84 202.755 375.026 198.232 378.302 196.049C379.02 195.806 380.409 195.879 380.409 195.879C380.995 194.19 383.923 188.259 384.106 187.018C380.847 187.203 360.756 188.68 351.832 189.158C342.902 189.639 325.706 189.523 319.976 189.46C323.491 186.932 331.831 181.999 343.751 177.79C345.296 177.243 346.726 176.749 348.06 176.304C349.052 178.071 349.788 179.819 349.942 181.341C350.701 180.561 351.27 177.975 351.079 175.321C358.028 173.103 361.608 172.368 363.152 171.95C364.127 170.687 365.856 165.576 366.113 161.861C365.075 159.97 361.824 157.614 358.931 155.591C354.946 152.808 350.648 150.382 346.359 151.443C340.495 152.881 339.32 163.654 340.686 165.939C341.122 166.66 342.155 167.939 343.373 169.517C339.09 171.201 334.608 173.181 330.659 175.263C321.861 179.897 312.038 184.967 309.173 189.842L308.352 190.242C308.122 190.703 306.308 198.247 306.045 199.06C307.875 198.997 321.538 199.022 331.053 198.726C340.563 198.422 348.879 198.12 352.136 198.12C347.312 199.263 334.671 203.96 331.037 206.723C327.402 209.493 325.118 213.705 325.057 220.925C321.669 219.598 315.372 216.567 310.006 209.309C304.024 201.22 305.262 192.901 302.868 181.984C299.389 166.141 291.961 152.765 287.335 148.673C285.776 154.264 285.576 158.478 285.576 158.478C285.576 158.478 291.372 171.292 294.306 179.472C297.239 187.654 299.746 195.715 299.622 197.52C297.206 202.818 282.906 213.915 270.988 220.411C259.687 226.57 249.73 227.233 246.202 222.847C245.509 221.991 245.038 220.978 244.772 219.831C246.306 219.114 247.846 218.392 249.423 217.671C259.585 213.041 277.633 203.297 281.862 198.184C286.425 191.987 286.362 183.263 283.686 178.269C281.021 173.277 276.841 167.498 276.515 165.455C276.261 164.49 279.23 165.847 280.983 165.939C281.832 165.875 281.407 164.733 279.586 162.927C278.129 161.489 272.494 156.822 270.342 155.001C269.802 154.538 269.399 154.725 269.29 155.214C268.871 157.078 268.013 161.069 267.682 163.039L267.912 164.032C268.531 164.399 269.243 164.812 269.588 165.842C270.076 167.304 271.782 171.381 274.579 176.527C277.381 181.67 281.429 187.348 281.826 190.214C278.534 194.413 261.933 203.355 245.761 210.724C246.761 207.625 248.339 204.12 250.431 200.227C251.026 199.569 251.568 198.756 252.072 197.839C253.685 194.892 253.841 191.288 252.864 192.05C252.025 192.858 251.423 195.783 250.464 195.981C248.5 196.383 245.745 194.091 246.438 189.9C247.065 186.119 249.086 182.706 249.96 180.52C251.171 177.496 251.502 174.508 250.585 176.134C248.522 179.766 244.652 186.801 243.463 191.716C242.28 196.624 243.537 199.979 245.61 201.278C246.386 201.772 247.128 201.927 247.835 201.83C246.416 204.53 244.663 207.842 243.384 211.793C236.881 214.703 230.554 217.303 225.317 219.177C206.491 225.916 193.075 229.887 183.691 232.835L183.324 232.999C184.014 230.768 183.921 228.864 183.181 229.436C182.343 230.249 181.743 233.174 180.785 233.367C178.821 233.769 176.065 231.48 176.756 227.286C177.386 223.505 179.407 220.097 180.281 217.909C181.486 214.888 181.82 211.894 180.905 213.523C178.84 217.154 174.972 224.189 173.784 229.102C172.598 234.012 173.855 237.368 175.926 238.669C178.506 240.29 180.705 238.302 182.393 235.228L182.984 233.964C183.57 233.964 184.559 233.827 186.036 233.498C190.336 232.531 201.087 230.971 215.87 229.044C226.815 227.621 234.372 224.615 241.677 221.269C241.644 222.077 241.636 222.9 241.672 223.748C242.069 233.779 248.643 236.611 257.632 234.734C266.304 232.913 278.397 224.961 285.645 219.598C293.202 214.006 297.562 209.01 298.675 207.268C300.69 202.995 301.244 198.275 301.381 196.049C302.041 202.182 302.575 210.671 308.376 217.952C313.718 224.653 324.663 234.002 345.25 234.258C345.318 231.809 344.338 224.164 344.338 224.164ZM342.976 162.008C345.924 158.701 352.212 160.864 356.932 165.057C354.513 165.625 351.229 166.635 347.605 167.929C345.452 165.333 343.05 162.831 342.976 162.008Z" fill="white"/>
<path d="M227.236 116.662C228.573 116.052 232.662 114.214 237.07 111.646C241.469 109.096 245.602 106.006 247.623 103.952C248.398 103.165 249.089 102.549 249.53 101.817C250.85 102.364 251.759 102.932 252.326 103.155C253.178 103.484 254.315 103.957 255.054 101.531C255.791 99.1078 254.813 97.5428 253.373 95.6739C252.154 94.1063 250.22 91.7511 248.65 91.1662C247.319 90.6673 246.686 93.6403 246.889 93.5669H247.779L247.952 93.6505C246.119 94.5748 244.701 97.4516 244.558 98.462C244.413 99.5611 244.621 100.371 247.251 101.048L248.308 101.359C246.114 103.957 242.025 106.644 239.239 108.549C235.286 111.258 229.677 114.644 228.08 115.622C226.483 116.594 226.617 116.901 227.236 116.662ZM250.99 97.5732L251.132 96.274C252.981 98.381 254.353 100.888 254.216 101.243C253.367 101.311 252.31 100.526 250.461 99.7358C250.666 99.1078 250.839 98.4139 250.99 97.5732ZM245.681 97.5757C245.67 97.1806 246.382 96.0816 247.889 95.4814C249.393 94.8761 250.058 96.5653 250.19 98.6216L249.743 99.4446L248.387 98.9761C246.952 98.5557 245.983 98.3177 245.681 97.5757Z" fill="white"/>
<path d="M325.813 156.326C327.982 154.893 333.945 150.588 337.328 147.767C339.681 145.807 342.445 142.92 344.321 140.478C345.499 141.241 346.597 141.917 347.597 142.504C349.525 143.631 350.3 145.303 350.3 145.303C350.656 144.756 352.316 141.762 351.667 140.306C351.278 139.83 348.906 138.445 346.482 136.961C347.712 134.201 349.404 129.427 346.98 127.756C344.907 126.337 341.409 128.685 339.79 131.731C338.454 134.254 338.281 136.394 340.831 138.146C341.549 138.64 342.236 139.106 342.91 139.549C340.338 142.363 335.6 146.526 332.228 149.36C328.04 152.864 324.079 156.301 323.389 157.121L323.189 157.44C322.274 154.893 322.523 153.32 321.844 154.166C318.91 158.767 322.586 162.495 323.923 166.218C322.115 167.859 319.346 166.352 318.417 164.916C316.44 161.943 317.1 155.906 314.785 154.971C314.188 156.602 313.799 158.418 313.799 158.418C313.799 158.418 315.56 162.553 315.114 165.283C314.837 166.935 313.375 168.867 311.455 168.9C306.316 169.031 308.85 161.429 306.867 157.124C306.464 158.18 306.176 159.309 305.694 160.287C306.059 161.419 306.259 162.989 306.311 163.898C306.442 165.704 306.294 167.641 306.598 169.191C307.023 171.369 308.233 172.817 310.082 172.952C313.914 173.263 315.665 170.148 316.245 167.608C316.905 170.206 321.981 173.063 324.476 169.877C327.782 165.666 325.136 162.06 323.446 158.099L323.246 157.585C323.482 157.668 324.367 157.281 325.813 156.326ZM340.801 132.613C342.072 130.255 344.748 130.055 345.551 131.291C346.189 132.273 346.241 134.19 345.282 136.214C342.921 134.732 340.815 133.281 340.801 132.613Z" fill="white"/>
<path d="M242.161 141.334C237.647 141.015 235.218 136.879 233.829 130.905C232.438 124.931 233.289 117.053 233.667 115.035C234.045 113.019 231.917 114.06 231.09 118.955C230.268 123.845 229.441 131.665 232.353 139.852C235.259 148.029 240.214 151.081 244.555 150.035C248.897 148.994 252.718 138.806 254.065 134.235C255.41 129.662 261.428 111.011 264.835 110.008C265.312 112.295 262.187 118.031 261.187 126.653C260.193 135.276 261.924 146.586 272.869 148.592C283.814 150.6 291.24 143.499 293.933 138.563C296.628 133.635 297.885 128.454 298.189 125.851C298.54 132.468 303.054 142.8 311.821 145.745C320.293 148.592 326.766 145.986 329.625 142.296C332.165 139.019 334.233 132.27 334.411 127.094C334.583 121.923 330.113 112.459 329.113 109.446C328.111 106.44 327.593 104.353 327.505 103.312C327.42 102.271 329.768 104.518 331.244 104.958C332.244 105.158 331.893 102.993 330.677 101.507C329.464 100.025 322.895 90.0651 322.435 90.759C322.153 91.1743 319.524 98.5005 319.351 99.6224C320.392 100.306 321.597 102.19 321.688 103.996C321.77 105.801 323.509 113.741 325.117 118.152C326.725 122.564 329.85 131.027 330.069 133.354C326.944 135.557 319.904 138.361 313.218 135.519C306.532 132.668 304.399 128.537 303.662 121.158C303.191 116.443 303.144 107.757 301.462 100.494C300.515 96.3885 298.518 92.2151 296.146 89.9992C295.587 91.3591 293.067 99.744 293.067 99.744C293.889 102.15 296.444 110.251 296.362 117.271C296.272 124.286 295.718 131.151 287.852 135.881C279.991 140.612 268.791 138.728 265.879 131.346C262.967 123.966 269.44 107.364 269.355 102.993C269.267 98.6221 268.481 98.0169 266.66 98.7411C264.835 99.4629 261.096 103.677 257.886 110.532C254.671 117.392 253.244 124.248 251.414 130.024C249.592 135.8 246.675 141.653 242.161 141.334Z" fill="white"/>
<path d="M111.095 115.748C116.65 115.345 121.345 111.133 122.558 110.014C123.774 108.887 124.429 107.208 123.558 107.846C117.132 113.582 108.534 113.744 108.052 112.78C108.271 111.817 110.533 110.252 113.834 108.049C115.839 106.709 117.625 105.453 118.962 103.673L119.326 103.736C121.772 104.273 124.596 105.342 125.459 104.486C126.864 103.101 127.05 100.832 125.527 98.3853C124.24 96.3087 121.238 94.3765 118.63 92.9811C116.028 91.5934 115.524 93.8092 115.19 94.5993C114.869 95.3363 115.001 95.9643 115.551 95.9795C114.713 97.1216 114.116 98.593 113.897 99.8085C113.755 100.594 113.87 101.237 114.19 101.766C114.283 101.915 114.765 102.506 115.677 102.855L116.809 103.207C114.861 105.005 112.618 106.413 111.44 107.125C109.315 108.409 106.795 110.655 106.014 112.977C105.231 115.307 105.535 116.15 111.095 115.748ZM120.915 99.3628L121.128 98.1776V97.4179C122.889 98.6993 125.705 101.125 125.533 102.579C124.418 102.326 122.292 101.877 120.274 101.358C120.531 100.753 120.742 100.09 120.915 99.3628ZM115.694 99.7325C114.398 98.6993 115.661 97.6686 116.809 97.0051C118.291 96.1492 119.159 96.8557 119.918 99.102C119.652 99.7452 119.279 100.371 118.841 100.971C117.688 100.614 116.064 100.041 115.694 99.7325Z" fill="white"/>
<path d="M127.76 178.481C126.163 179.866 125.544 184.374 125.87 184.645C126.193 184.916 131.184 186.6 131.965 186.965L132.321 185.607C134.698 187.742 137.333 198.394 137.919 198.424C138.506 198.452 139.355 197.219 139.911 194.39C140.423 191.766 140.935 187.841 141.469 184.645C141.968 181.72 142.743 180.046 144.501 179.712C146.263 179.383 147.566 181.639 148.021 183.174C148.021 183.174 149.257 180.224 149.519 178.39C149.226 177.425 146.487 173.789 144.241 174.992C141.992 176.197 140.585 181.3 140.13 184.491C139.672 187.676 139.322 191.627 138.769 192.26C138.188 189.54 136.328 184.673 134.082 181.938C131.557 178.874 128.604 177.749 127.76 178.481Z" fill="white"/>
<path d="M106.472 173.036C108.556 172.464 113.248 171.745 115.494 170.572C117.611 169.579 121.224 164.738 122.627 162.932C124.026 161.126 124.029 160.22 123.673 159.741C122.24 158.956 112.985 158.179 108.52 159.285C107.288 160.118 104.875 164.583 104.519 165.518C104.157 166.447 104.65 166.389 106.146 166.059C107.644 165.725 114.746 165.905 117.316 166.447C116.245 167.202 108.981 170.871 107.545 171.745C106.116 172.616 105.754 173.127 106.472 173.036Z" fill="white"/>
<path d="M536.788 198.885C536.574 193.473 533.923 185.164 523.843 172.416C520.364 168.015 515.47 162.287 510.306 156.419C510.164 154.418 510.022 152.59 509.893 151.02C509.216 142.944 506.924 126.468 505.938 116.728C505.697 114.272 505.677 111.659 505.713 110.294C505.749 109.21 506.529 109.354 507.603 110.468C508.677 111.58 510.331 113.203 510.676 113.092C511.41 112.839 510.772 110.38 509.307 107.465C507.844 104.545 502.314 92.7364 501.298 92.278C500.775 92.045 498.167 98.9788 498.005 100.397C498.523 101.268 499.86 102.623 499.988 106.566C500.125 110.506 502.503 133.779 503.87 148.444L503.944 149.262C496.225 140.645 488.955 132.787 485.964 129.601C485.447 129.049 484.877 128.421 484.263 127.747C483.776 123.824 483.327 120.086 483.017 116.999C482.765 114.548 482.749 111.93 482.792 110.565C482.817 109.483 483.603 109.63 484.677 110.744C485.756 111.856 487.405 113.479 487.75 113.363C488.484 113.115 487.846 110.656 486.378 107.736C484.918 104.816 479.152 92.7364 478.131 92.278C477.613 92.045 474.885 99.5309 474.723 100.939C475.246 101.815 476.58 103.17 476.712 107.113C476.764 108.787 477.199 113.862 477.78 120.266C472.663 114.186 467.654 107.819 467.298 106.525C467.172 105.887 468.253 106.28 470.256 106.604C472.25 106.923 474.121 107.523 473.8 106.536C473.649 106.077 472.888 104.932 470.979 103.747C469.067 102.565 464.17 99.5005 460.527 97.3378C456.875 95.1726 455.068 93.3518 454.314 93.8709C453.942 94.1267 454.273 101.549 454.487 102.468C455.404 102.552 457.1 103.233 458.179 104.677C459.269 106.12 466.248 115.905 471.768 122.523C473.356 124.427 475.843 127.38 478.755 130.788C479.325 136.884 479.922 143.182 480.415 148.444C481.535 160.448 485.562 192.106 485.6 202.395C482.628 205.183 476.55 209.073 470.297 209.154C464.044 209.232 460.614 207.586 458.094 202.937C457.316 201.496 456.593 200.047 455.876 198.736C454.172 195.618 450.37 193.868 446.705 194.727L446.146 194.876L445.149 195.355C442.668 196.654 440.101 198.832 437.592 202.21C433.254 208.07 430.482 214.426 427.271 219.932C423.927 225.665 421.361 229.512 415.493 228.593C411.363 227.944 408.227 224.402 406.293 220.043C411.724 216.285 415.669 211.382 418.553 204.588C422.308 195.757 423.648 185.803 423.313 174.609C422.993 164.074 418.191 139.29 416.923 129.791C415.658 120.287 413.839 112.487 414.05 110.458C414.247 108.501 417.364 113.11 418.961 113.454C419.777 113.272 419.339 110.332 417.789 107.847C416.737 106.158 413.406 98.4748 411.226 94.7699C410.202 93.0175 409.955 92.002 409.478 91.7943C409.007 91.5791 405.378 99.3308 405.816 100.174C406.89 101.709 407.624 102.441 407.849 105.191C408.079 107.941 410.566 128.129 412.741 142.997C414.379 154.216 417.997 174.594 418.463 189.657C418.616 194.572 417.915 198.1 417.307 200.07C415.745 203.089 413.201 206.442 404.26 212.806C402.88 203.813 404.381 196.507 403.072 195.831C401.595 195.99 401.36 200.182 401.193 205.353C401.111 207.741 401.215 211.048 401.664 214.601C390.683 221.94 376.177 228.623 369.365 232.191C365.368 234.288 366.809 234.777 370.192 233.731C373.575 232.68 392.165 227.805 402.088 222.586L403.157 221.993C403.661 223.743 404.271 225.437 405.022 227C408.361 233.939 413.132 238.059 418.301 237.656C422.648 237.322 425.801 232.67 428.551 227.121C431.331 221.505 436.028 210.838 440.635 206.87C442.405 205.34 444.235 204.13 446.015 203.403C446.015 203.403 449.162 202.352 452.057 204.244C453.095 204.927 453.871 205.9 454.361 206.989C455.503 209.488 456.853 212.669 459.614 215.333C464.479 220.018 472.302 219.051 478.169 216.326C484.028 213.598 487.019 209.344 488.323 204.289C490.547 195.641 490.191 186.78 489.766 178.909C489.276 169.927 487.841 160.747 487.024 151.02C486.761 147.892 486.249 143.542 485.66 138.824C491.374 145.418 497.307 152.111 500.906 155.771C502.147 157.034 503.456 158.437 504.801 159.919C505.875 174.642 506.907 193.066 507.452 200.797C507.992 208.501 507.644 218.185 507.581 219.869C507.515 221.553 508.452 221.264 509.797 217.526C511.599 212.509 512.731 199.354 512.336 190.629C512.101 185.445 511.583 175.995 511.024 167.055C515.459 172.325 519.669 177.646 522.408 181.237C527.278 187.613 531.751 195.195 533.315 199.926C534.876 204.661 535.049 206.064 535.353 206.908C535.657 207.751 537.002 204.297 536.788 198.885Z" fill="white"/>
<path d="M454.55 379.012C454.11 377.754 452.763 376.831 451.152 376.831C449.541 376.831 448.197 377.754 447.754 379.012H432.5C432.346 377.32 432.496 375.62 432.976 373.963L464.469 373.944L465.346 375.422C466.137 376.754 467.138 377.958 468.298 379.013L454.55 379.012ZM475.398 364.378H437.553C440.462 362.279 441.987 359.216 441.578 356.117C441.317 354.164 439.382 352.705 437.023 352.507H435.838C432.968 352.787 430.887 354.856 431.189 357.128L431.305 358.001L431.445 359.345C431.599 361.032 431.451 362.727 430.975 364.378H151.236C155.39 370.422 162.964 374.128 171.142 374.122L426.408 373.965C423.489 376.067 421.958 379.136 422.37 382.24C422.672 384.512 425.24 386.13 428.11 385.85C430.977 385.57 433.058 383.501 432.759 381.226L432.643 380.355H447.645C447.908 381.82 449.371 382.943 451.152 382.943C452.934 382.943 454.396 381.82 454.663 380.355H469.923V380.32C473.109 382.581 477.158 383.88 481.441 383.88C485.471 383.88 488.737 381.081 488.737 377.625V375.817C488.737 369.501 482.766 364.377 475.399 364.377" fill="white"/>
</g>
</g>
<defs>
<clipPath id="clip0_97_2">
<rect width="640" height="480" fill="white"/>
</clipPath>
<clipPath id="clip1_97_2">
<rect width="900" height="600" fill="white" transform="translate(-130 -60)"/>
</clipPath>
</defs>
</svg>
