<svg width="640" height="480" viewBox="0 0 640 480" fill="none" xmlns="http://www.w3.org/2000/svg">
<g clip-path="url(#clip0_97_78)">
<rect width="640" height="480" fill="white"/>
<g clip-path="url(#clip1_97_78)">
<path d="M740 0H-100V480H740V0Z" fill="#DA0000"/>
<path d="M740 0H-100V320H740V0Z" fill="white"/>
<path d="M740 0H-100V160H740V0Z" fill="#239F40"/>
<path d="M-14.1328 135.733H34.4005M-12.2661 152.533V143.2H2.66719V150.667H17.6005V143.2H8.26719M-6.66615 150.667H-2.93281M34.4005 150.667H25.0672V143.2H40.0005M40.0005 133.867V150.667H54.9339V133.867M47.4672 133.867V150.667" stroke="white" stroke-width="2.8"/>
<path d="M-14.1328 160H19.4672M23.2005 160H56.8005" stroke="white" stroke-width="5.6"/>
<path d="M-14.1328 320H19.4672M23.2005 320H56.8005" stroke="white" stroke-width="5.6"/>
<path d="M-14.1328 329.333H34.4005M-12.2661 346.133V336.8H2.66719V344.267H17.6005V336.8H8.26719M-6.66615 344.267H-2.93281M34.4005 344.267H25.0672V336.8H40.0005M40.0005 327.467V344.267H54.9339V327.467M47.4672 327.467V344.267" stroke="white" stroke-width="2.8"/>
<path d="M60.5342 135.733H109.068M62.4008 152.533V143.2H77.3342V150.667H92.2675V143.2H82.9342M68.0008 150.667H71.7342M109.068 150.667H99.7342V143.2H114.668M114.668 133.867V150.667H129.601V133.867M122.134 133.867V150.667" stroke="white" stroke-width="2.8"/>
<path d="M60.5342 160H94.1342M97.8675 160H131.468" stroke="white" stroke-width="5.6"/>
<path d="M60.5342 320H94.1342M97.8675 320H131.468" stroke="white" stroke-width="5.6"/>
<path d="M60.5342 329.333H109.068M62.4008 346.133V336.8H77.3342V344.267H92.2675V336.8H82.9342M68.0008 344.267H71.7342M109.068 344.267H99.7342V336.8H114.668M114.668 327.467V344.267H129.601V327.467M122.134 327.467V344.267" stroke="white" stroke-width="2.8"/>
<path d="M135.2 135.733H183.734M137.067 152.533V143.2H152V150.667H166.934V143.2H157.6M142.667 150.667H146.4M183.734 150.667H174.4V143.2H189.334M189.334 133.867V150.667H204.267V133.867M196.8 133.867V150.667" stroke="white" stroke-width="2.8"/>
<path d="M135.2 160H168.8M172.534 160H206.134" stroke="white" stroke-width="5.6"/>
<path d="M135.2 320H168.8M172.534 320H206.134" stroke="white" stroke-width="5.6"/>
<path d="M135.2 329.333H183.734M137.067 346.133V336.8H152V344.267H166.934V336.8H157.6M142.667 344.267H146.4M183.734 344.267H174.4V336.8H189.334M189.334 327.467V344.267H204.267V327.467M196.8 327.467V344.267" stroke="white" stroke-width="2.8"/>
<path d="M209.867 135.733H258.401M211.734 152.533V143.2H226.667V150.667H241.601V143.2H232.267M217.334 150.667H221.067M258.401 150.667H249.067V143.2H264.001M264.001 133.867V150.667H278.934V133.867M271.467 133.867V150.667" stroke="white" stroke-width="2.8"/>
<path d="M209.867 160H243.467M247.201 160H280.801" stroke="white" stroke-width="5.6"/>
<path d="M209.867 320H243.467M247.201 320H280.801" stroke="white" stroke-width="5.6"/>
<path d="M209.867 329.333H258.401M211.734 346.133V336.8H226.667V344.267H241.601V336.8H232.267M217.334 344.267H221.067M258.401 344.267H249.067V336.8H264.001M264.001 327.467V344.267H278.934V327.467M271.467 327.467V344.267" stroke="white" stroke-width="2.8"/>
<path d="M284.534 135.733H333.068M286.401 152.533V143.2H301.334V150.667H316.268V143.2H306.934M292.001 150.667H295.734M333.068 150.667H323.734V143.2H338.668M338.668 133.867V150.667H353.601V133.867M346.134 133.867V150.667" stroke="white" stroke-width="2.8"/>
<path d="M284.534 160H318.134M321.868 160H355.468" stroke="white" stroke-width="5.6"/>
<path d="M284.534 320H318.134M321.868 320H355.468" stroke="white" stroke-width="5.6"/>
<path d="M284.534 329.333H333.068M286.401 346.133V336.8H301.334V344.267H316.268V336.8H306.934M292.001 344.267H295.734M333.068 344.267H323.734V336.8H338.668M338.668 327.467V344.267H353.601V327.467M346.134 327.467V344.267" stroke="white" stroke-width="2.8"/>
<path d="M359.2 135.733H407.734M361.067 152.533V143.2H376V150.667H390.934V143.2H381.6M366.667 150.667H370.4M407.734 150.667H398.4V143.2H413.334M413.334 133.867V150.667H428.267V133.867M420.8 133.867V150.667" stroke="white" stroke-width="2.8"/>
<path d="M359.2 160H392.8M396.534 160H430.134" stroke="white" stroke-width="5.6"/>
<path d="M359.2 320H392.8M396.534 320H430.134" stroke="white" stroke-width="5.6"/>
<path d="M359.2 329.333H407.734M361.067 346.133V336.8H376V344.267H390.934V336.8H381.6M366.667 344.267H370.4M407.734 344.267H398.4V336.8H413.334M413.334 327.467V344.267H428.267V327.467M420.8 327.467V344.267" stroke="white" stroke-width="2.8"/>
<path d="M433.867 135.733H482.401M435.734 152.533V143.2H450.667V150.667H465.601V143.2H456.267M441.334 150.667H445.067M482.401 150.667H473.067V143.2H488.001M488.001 133.867V150.667H502.934V133.867M495.467 133.867V150.667" stroke="white" stroke-width="2.8"/>
<path d="M433.867 160H467.467M471.201 160H504.801" stroke="white" stroke-width="5.6"/>
<path d="M433.867 320H467.467M471.201 320H504.801" stroke="white" stroke-width="5.6"/>
<path d="M433.867 329.333H482.401M435.734 346.133V336.8H450.667V344.267H465.601V336.8H456.267M441.334 344.267H445.067M482.401 344.267H473.067V336.8H488.001M488.001 327.467V344.267H502.934V327.467M495.467 327.467V344.267" stroke="white" stroke-width="2.8"/>
<path d="M508.534 135.733H557.068M510.401 152.533V143.2H525.334V150.667H540.268V143.2H530.934M516.001 150.667H519.734M557.068 150.667H547.734V143.2H562.668M562.668 133.867V150.667H577.601V133.867M570.134 133.867V150.667" stroke="white" stroke-width="2.8"/>
<path d="M508.534 160H542.134M545.868 160H579.468" stroke="white" stroke-width="5.6"/>
<path d="M508.534 320H542.134M545.868 320H579.468" stroke="white" stroke-width="5.6"/>
<path d="M508.534 329.333H557.068M510.401 346.133V336.8H525.334V344.267H540.268V336.8H530.934M516.001 344.267H519.734M557.068 344.267H547.734V336.8H562.668M562.668 327.467V344.267H577.601V327.467M570.134 327.467V344.267" stroke="white" stroke-width="2.8"/>
<path d="M583.201 135.733H631.735M585.068 152.533V143.2H600.001V150.667H614.935V143.2H605.601M590.668 150.667H594.401M631.735 150.667H622.401V143.2H637.335M637.335 133.867V150.667H652.268V133.867M644.801 133.867V150.667" stroke="white" stroke-width="2.8"/>
<path d="M583.201 160H616.801M620.535 160H654.135" stroke="white" stroke-width="5.6"/>
<path d="M583.201 320H616.801M620.535 320H654.135" stroke="white" stroke-width="5.6"/>
<path d="M583.201 329.333H631.735M585.068 346.133V336.8H600.001V344.267H614.935V336.8H605.601M590.668 344.267H594.401M631.735 344.267H622.401V336.8H637.335M637.335 327.467V344.267H652.268V327.467M644.801 327.467V344.267" stroke="white" stroke-width="2.8"/>
<path d="M380.941 239.066C380.944 247.538 378.634 255.849 374.259 263.103C369.885 270.358 363.613 276.28 356.119 280.231C366.093 267.749 370.7 251.815 368.926 235.936C367.152 220.057 359.143 205.533 346.661 195.559C345.775 194.851 344.869 194.169 343.944 193.512C354.403 195.704 363.789 201.428 370.526 209.724C377.263 218.019 380.94 228.38 380.941 239.066Z" fill="#DA0000"/>
<path d="M359.354 237.19C359.349 245.962 357.268 254.608 353.283 262.422C349.298 270.237 343.521 276.997 336.423 282.152C329.326 287.308 321.11 290.711 312.446 292.084C303.782 293.457 294.917 292.761 286.573 290.053C287.554 290.1 288.54 290.124 289.53 290.124C300.591 290.122 311.442 287.11 320.922 281.411C330.402 275.712 338.152 267.541 343.343 257.774C348.533 248.006 350.968 237.011 350.386 225.965C349.804 214.92 346.228 204.24 340.04 195.072C346.106 200.285 350.973 206.747 354.307 214.017C357.64 221.287 359.362 229.192 359.354 237.19Z" fill="#DA0000"/>
<path d="M335.693 183.364C335.693 185.208 335.092 187.002 333.983 188.474C332.873 189.947 331.315 191.018 329.543 191.527C327.77 192.036 325.881 191.954 324.159 191.293C322.438 190.633 320.978 189.431 320 187.867L318.976 186.838L320 181.841C320.705 183.367 321.876 184.629 323.344 185.446C324.813 186.263 326.504 186.593 328.171 186.386C329.839 186.18 331.399 185.449 332.624 184.299C333.85 183.149 334.678 181.639 334.99 179.988C335.455 181.053 335.694 182.202 335.693 183.364Z" fill="#DA0000"/>
<path d="M327.196 197.133C324.36 195.84 321.888 193.865 320 191.385L316.959 239.014L320 300.012L324.73 293.5L325.352 278.487L325.998 262.855L326.083 260.851L326.111 260.106L326.248 256.857L326.654 247.016L326.984 239.071L327.078 236.775L327.2 233.851L327.196 197.133Z" fill="#DA0000"/>
<path d="M259.059 239.066C259.056 247.538 261.366 255.849 265.741 263.103C270.115 270.358 276.387 276.28 283.881 280.231C273.907 267.749 269.3 251.815 271.074 235.936C272.848 220.057 280.857 205.533 293.339 195.559C294.225 194.851 295.131 194.169 296.056 193.512C285.597 195.704 276.211 201.428 269.474 209.724C262.737 218.019 259.06 228.38 259.059 239.066Z" fill="#DA0000"/>
<path d="M280.646 237.19C280.651 245.962 282.732 254.608 286.717 262.422C290.702 270.237 296.479 276.997 303.577 282.152C310.674 287.308 318.89 290.711 327.554 292.084C336.218 293.457 345.083 292.761 353.427 290.053C352.446 290.1 351.46 290.124 350.47 290.124C339.409 290.122 328.558 287.11 319.078 281.411C309.598 275.712 301.848 267.541 296.657 257.774C291.467 248.006 289.032 237.011 289.614 225.965C290.196 214.92 293.772 204.24 299.96 195.072C293.894 200.285 289.027 206.747 285.693 214.017C282.36 221.287 280.638 229.192 280.646 237.19Z" fill="#DA0000"/>
<path d="M304.307 183.364C304.307 185.208 304.908 187.002 306.017 188.474C307.127 189.947 308.685 191.018 310.457 191.527C312.23 192.036 314.119 191.954 315.841 191.293C317.562 190.633 319.022 189.431 320 187.867L321.024 186.838L320 181.841C319.295 183.367 318.124 184.629 316.656 185.446C315.187 186.263 313.496 186.593 311.829 186.386C310.161 186.18 308.601 185.449 307.376 184.299C306.15 183.149 305.322 181.639 305.01 179.988C304.545 181.053 304.306 182.202 304.307 183.364Z" fill="#DA0000"/>
<path d="M312.804 197.133C315.64 195.84 318.112 193.865 320 191.385L323.041 239.014L320 300.012L315.27 293.5L314.648 278.487L314.002 262.855L313.917 260.851L313.889 260.106L313.752 256.857L313.346 247.016L313.016 239.071L312.922 236.775L312.8 233.851L312.804 197.133Z" fill="#DA0000"/>
</g>
</g>
<defs>
<clipPath id="clip0_97_78">
<rect width="640" height="480" fill="white"/>
</clipPath>
<clipPath id="clip1_97_78">
<rect width="840" height="480" fill="white" transform="translate(-100)"/>
</clipPath>
</defs>
</svg>
